HIERARCHY
ROOT Hips
{
	OFFSET -3.958830 18.904000 13.208200
	CHANNELS 6 Xposition Yposition Zposition Zrotation Yrotation Xrotation 
	JOINT LHipJoint
	{
		OFFSET 0.000000 0.000000 0.000000
		CHANNELS 3 Zrotation Yrotation Xrotation
		JOINT LeftUpLeg
		{
			OFFSET 1.800000 -1.400000 0.085000
			CHANNELS 3 Zrotation Yrotation Xrotation
			JOINT LeftLeg
			{
				OFFSET 2.215000 -6.000000 0.000000
				CHANNELS 3 Zrotation Yrotation Xrotation
				JOINT LeftFoot
				{
					OFFSET 2.500000 -6.900000 0.000000
					CHANNELS 3 Zrotation Yrotation Xrotation
					JOINT LeftToeBase
					{
						OFFSET 0.200000 -0.500000 1.950000
						CHANNELS 3 Zrotation Yrotation Xrotation
						End Site
						{
							OFFSET 0.000000 0.000000 0.000000
						}
					}
				}
			}
		}
	}
	JOINT RHipJoint
	{
		OFFSET 0.000000 0.000000 0.000000
		CHANNELS 3 Zrotation Yrotation Xrotation
		JOINT RightUpLeg
		{
			OFFSET -1.800000 -1.400000 0.085000
			CHANNELS 3 Zrotation Yrotation Xrotation
			JOINT RightLeg
			{
				OFFSET -2.215000 -6.000000 0.000000
				CHANNELS 3 Zrotation Yrotation Xrotation
				JOINT RightFoot
				{
					OFFSET -2.500000 -6.900000 0.000000
					CHANNELS 3 Zrotation Yrotation Xrotation
					JOINT RightToeBase
					{
						OFFSET -0.200000 -0.500000 1.950000
						CHANNELS 3 Zrotation Yrotation Xrotation
						End Site
						{
							OFFSET 0.000000 0.000000 0.000000
						}
					}
				}
			}
		}
	}
	JOINT LowerBack
	{
		OFFSET 0.000000 0.000000 0.000000
		CHANNELS 3 Zrotation Yrotation Xrotation
		JOINT Spine
		{
			OFFSET -0.087000 1.940000 -0.288900
			CHANNELS 3 Zrotation Yrotation Xrotation
			JOINT Spine1
			{
				OFFSET 0.000000 1.950000 0.060000
				CHANNELS 3 Zrotation Yrotation Xrotation
				JOINT Neck
				{
					OFFSET 0.000000 0.000000 0.000000
					CHANNELS 3 Zrotation Yrotation Xrotation
					JOINT Neck1
					{
						OFFSET 0.000000 1.600000 0.340000
						CHANNELS 3 Zrotation Yrotation Xrotation
						JOINT Head
						{
							OFFSET 0.000000 1.667000 -0.240000
							CHANNELS 3 Zrotation Yrotation Xrotation
							End Site
							{
								OFFSET 0.000000 0.000000 0.000000
							}
						}
					}
				}
				JOINT LeftShoulder
				{
					OFFSET 0.000000 0.000000 0.000000
					CHANNELS 3 Zrotation Yrotation Xrotation
					JOINT LeftArm
					{
						OFFSET 2.700000 1.550000 -0.730000
						CHANNELS 3 Zrotation Yrotation Xrotation
						JOINT LeftForeArm
						{
							OFFSET 5.450000 0.000000 0.000000
							CHANNELS 3 Zrotation Yrotation Xrotation
							JOINT LeftHand
							{
								OFFSET 3.450000 0.000000 0.000000
								CHANNELS 3 Zrotation Yrotation Xrotation
								JOINT LeftHandIndex1
								{
									OFFSET 0.750000 0.000000 0.000000
									CHANNELS 3 Zrotation Yrotation Xrotation
									End Site
									{
										OFFSET 0.000000 0.000000 0.000000
									}
								}
							}
						}
					}
				}
				JOINT RightShoulder
				{
					OFFSET 0.000000 0.000000 0.000000
					CHANNELS 3 Zrotation Yrotation Xrotation
					JOINT RightArm
					{
						OFFSET -2.700000 1.550000 -0.730000
						CHANNELS 3 Zrotation Yrotation Xrotation
						JOINT RightForeArm
						{
							OFFSET -5.450000 0.000000 0.000000
							CHANNELS 3 Zrotation Yrotation Xrotation
							JOINT RightHand
							{
								OFFSET -3.450000 0.000000 0.000000
								CHANNELS 3 Zrotation Yrotation Xrotation
								JOINT RightHandIndex1
								{
									OFFSET -0.750000 0.000000 0.000000
									CHANNELS 3 Zrotation Yrotation Xrotation
									End Site
									{
										OFFSET 0.000000 0.000000 0.000000
									}
								}
							}
						}
					}
				}
			}
		}
	}
}
MOTION
Frames: 5
Frame Time: 0.016667
-1.628310 19.589730 -1.416540 -7.402565 -6.179525 -20.412037 -15.581658 8.621107 5.271003 22.210732 -9.110802 -48.094984 -11.893545 26.313711 70.386532 1.806235 14.909983 -0.481123 -0.024990 -0.096340 -0.026930 18.827528 -5.457669 6.554571 -24.619320 14.146888 -70.416007 4.133283 -49.906232 117.174143 -5.110235 -22.085695 -1.552783 -0.256000 0.008600 0.220170 -3.982241 -1.938521 -10.971982 18.484148 -12.113398 64.443517 -14.669646 -2.651562 -0.832956 8.074753 -3.928069 -13.712649 -13.271877 5.896423 55.905651 0.956080 0.793260 -34.525640 12.113655 -42.204178 4.869187 20.872930 -22.868467 -15.669059 126.912569 -51.417347 -97.067045 -3.335920 2.875522 0.928370 -0.320330 0.457650 -0.013840 -27.943653 44.198271 -7.407661 -26.779066 30.945877 -19.101434 -118.225258 55.879310 -91.628869 2.463901 -0.235285 -0.145990 0.307490 0.246890 -0.044190 
-1.690540 19.607290 -1.483750 -2.665596 -7.763199 -20.497565 -15.781689 8.325105 6.477410 26.514911 -9.387499 -53.894751 -21.445350 34.150566 70.247424 2.305440 16.429154 -0.803619 -0.043050 -0.099880 -0.027410 18.675364 -5.706141 5.434226 -18.370030 14.507827 -61.256791 -3.048388 -35.837072 114.539594 -4.315838 -19.158093 -1.118720 -0.269830 0.015630 0.210290 -3.560229 -2.139924 -11.040232 9.316833 -5.783303 66.215542 -10.672023 0.334920 -1.513287 6.884377 -3.536822 -13.714344 -12.945762 6.208093 56.762524 1.843490 1.809360 -35.214610 13.385273 -41.591507 3.077318 22.127360 -25.204051 -15.461617 126.035895 -54.075621 -99.219179 -3.355001 2.808641 0.938510 -0.319780 0.467610 -0.028400 -26.530661 45.408962 -5.473645 -28.448933 29.729629 -19.421343 -119.212126 55.615385 -92.471191 2.436701 -0.326928 -0.150410 0.326380 0.258470 -0.048200 
-1.744860 19.594940 -1.536740 1.634865 -9.388752 -20.884004 -15.961218 8.203821 7.520962 31.251028 -8.189397 -58.527951 -33.004557 41.253980 66.073392 2.608838 16.993292 -0.860167 -0.054520 -0.110950 -0.015970 18.531927 -6.104442 4.290802 -14.422907 13.469969 -51.631092 -5.950217 -25.069331 105.951919 -3.614714 -16.575836 -0.670225 -0.270590 0.026070 0.205420 -3.173783 -2.249543 -10.986928 0.970323 -0.125787 66.419266 -7.442363 3.586561 -1.785930 5.870231 -3.133179 -13.765493 -12.442360 6.265009 56.935819 2.308990 2.757480 -34.775510 14.199759 -40.881494 1.440580 23.503100 -27.253799 -15.216866 125.861938 -57.487204 -103.284925 -3.360834 2.827850 0.947540 -0.312450 0.470330 -0.037340 -25.067861 46.654250 -3.520270 -29.895773 27.896941 -19.631494 -118.946609 55.885176 -91.710647 2.404721 -0.321230 -0.168220 0.337720 0.261540 -0.058660 
-1.810680 19.509420 -1.561420 6.024664 -9.544414 -19.837509 -16.225782 8.219427 8.502331 36.255732 -6.272884 -64.898368 -46.575354 47.299822 59.233532 2.681180 16.705588 -0.719144 -0.033650 -0.083300 -0.002750 18.354762 -6.403750 3.116388 -13.588383 10.391155 -44.368423 -8.144517 -16.918501 94.783195 -2.954466 -14.296473 -0.217907 -0.217010 0.068730 0.202290 -2.575826 -2.834625 -10.876331 -8.205623 5.221902 62.167740 -2.673165 6.238540 -0.292953 4.631188 -3.253398 -12.951091 -12.205727 6.570742 55.086882 1.834280 3.690930 -33.404810 15.633097 -39.015037 -0.047069 22.332908 -29.462403 -14.021150 124.785637 -58.640691 -103.446222 -3.464905 2.715842 0.926760 -0.266040 0.439470 -0.033450 -24.041524 46.975729 -1.907305 -30.834001 28.234048 -20.305902 -115.254369 55.897930 -82.506799 2.266133 0.004690 -0.197880 0.371960 0.271770 -0.069540 
-1.877980 19.376220 -1.560330 10.129605 -9.946224 -18.388937 -16.496515 8.336621 9.305814 40.888426 -2.094561 -71.428333 -59.796396 52.713810 52.244902 2.592310 15.863979 -0.474785 -0.018060 -0.060230 0.003810 18.195807 -6.676066 1.986702 -14.467069 7.693630 -37.516722 -8.407957 -11.889549 81.209073 -2.281150 -12.024040 0.283689 -0.162270 0.113920 0.225830 -1.994237 -3.431128 -10.709694 -16.645171 9.731823 56.126294 1.871415 7.976139 1.674688 3.464402 -3.113605 -12.113231 -11.316235 6.532561 52.760544 0.624040 4.737170 -31.990720 17.407080 -36.935537 -1.243082 21.478943 -31.385492 -12.868549 123.597452 -57.359317 -99.939045 -3.613025 2.570089 0.886330 -0.200070 0.400970 -0.044510 -23.590325 46.258096 -0.811860 -31.091004 28.133721 -20.384195 -112.350343 56.745423 -77.530418 2.120054 0.154850 -0.213400 0.381450 0.300590 -0.079210 
